<svg width="97" height="19" viewBox="0 0 97 19" fill="none" xmlns="http://www.w3.org/2000/svg">
<path d="M0.85 18.2499V18.3999H1H2.54221H2.69221V18.2499V16.1671C3.21084 16.8059 3.84986 17.3388 4.57451 17.7346L4.57717 17.736C5.41726 18.1731 6.35265 18.3951 7.29954 18.3819C8.13468 18.3931 8.96316 18.232 9.73323 17.9086C10.5032 17.5852 11.1983 17.1065 11.775 16.5025C12.3764 15.9097 12.8513 15.2011 13.1709 14.4194C13.4905 13.6379 13.6483 12.7997 13.6347 11.9555C13.6512 11.107 13.4969 10.2638 13.181 9.47613C12.8649 8.68785 12.3934 7.97123 11.7946 7.3689C10.8874 6.43433 9.71015 5.80755 8.42828 5.57669C7.1461 5.34578 5.82378 5.52259 4.64732 6.08227L4.6473 6.08222L4.64376 6.08402C3.9046 6.45991 3.24308 6.96971 2.69221 7.58631V1.30029V1.15029H2.54221H1H0.85V1.30029V18.2499ZM7.17313 16.5936V16.5936L7.16886 16.5937C6.56148 16.6068 5.95802 16.4932 5.39698 16.2602C4.83594 16.0271 4.32963 15.6797 3.91034 15.24L3.91035 15.24L3.90904 15.2387C3.02562 14.3352 2.58275 13.2127 2.58277 11.8605L2.58274 11.8583C2.5706 11.0287 2.77409 10.2101 3.17328 9.48276C3.5701 8.77523 4.15757 8.19331 4.86884 7.80323L4.86887 7.80328L4.87229 7.80128C5.5785 7.38937 6.38087 7.171 7.19843 7.16823C7.99521 7.16945 8.77658 7.3879 9.45847 7.80009L9.45982 7.80089C10.1683 8.2191 10.7513 8.82014 11.1478 9.54106L11.1478 9.54107L11.149 9.54318C11.5589 10.2609 11.7746 11.0732 11.7746 11.8997C11.7746 12.7263 11.5589 13.5385 11.149 14.2563L11.149 14.2562L11.1477 14.2585C10.7575 14.9701 10.182 15.5629 9.4823 15.974C8.78257 16.3851 7.98466 16.5992 7.17313 16.5936Z" fill="#FF5B91" stroke="#FF5B91" stroke-width="0.3"/>
<path d="M25.3339 13.8108L25.2087 13.7452L25.1358 13.8662C24.6665 14.6447 24.2427 15.1956 23.8656 15.5293C23.4452 15.8862 22.9632 16.1634 22.4434 16.3475L22.4434 16.3475L22.4408 16.3485C21.8875 16.5563 21.3016 16.6637 20.7106 16.6657L20.708 16.6657C20.1335 16.6778 19.5629 16.5693 19.033 16.3472C18.503 16.1251 18.0255 15.7944 17.6313 15.3764L17.6303 15.3754C16.8307 14.5433 16.3995 13.4879 16.3424 12.1985H26.9699H27.1208L27.1198 12.0476C27.1088 10.3758 26.6598 8.97463 25.7641 7.85472C24.5125 6.26649 22.8347 5.47158 20.7455 5.47158L20.7454 5.47158C18.7148 5.4727 17.086 6.24925 15.8737 7.79942C14.9309 8.9801 14.4244 10.45 14.4397 11.9608C14.4337 13.6004 15.034 15.1843 16.1252 16.408C17.257 17.7276 18.8306 18.3818 20.8258 18.3821C21.6548 18.3958 22.4791 18.2564 23.2575 17.971L23.2575 17.971L23.2595 17.9703C23.9755 17.6959 24.6324 17.2869 25.1947 16.7656L25.1947 16.7656L25.1964 16.7639C25.8184 16.1688 26.3295 15.4678 26.7061 14.6938L26.7698 14.5628L26.6408 14.4953L25.3339 13.8108ZM22.7386 7.68679L22.7386 7.68682L22.7414 7.68805C23.3255 7.94761 23.8407 8.34019 24.2459 8.83441C24.6323 9.35205 24.9135 9.93965 25.0745 10.564L16.5264 10.5718C16.8359 9.58487 17.2718 8.84973 17.8264 8.35385L17.8264 8.35385L17.8273 8.35302C18.6282 7.62484 19.6769 7.22976 20.7592 7.24845L20.7621 7.24844C21.4452 7.24713 22.1201 7.39682 22.7386 7.68679Z" fill="#FF5B91" stroke="#FF5B91" stroke-width="0.3"/>
<path d="M30.0573 1.32705H29.9073V1.47705V5.45377H27.9531H27.8031V5.60377V6.9385V7.0885H27.9531H29.9073V18.2502V18.4002H30.0573H31.6012H31.7512V18.2502V7.0885H34.0517H34.2017V6.9385V5.60377V5.45377H34.0517H31.7512V1.47705V1.32705H31.6012H30.0573Z" fill="#FF5B91" stroke="#FF5B91" stroke-width="0.3"/>
<path d="M36.576 1.32705H36.426V1.47705V5.45377H34.4702H34.3202V5.60377V6.9385V7.0885H34.4702H36.4228V18.2502V18.4002H36.5728H38.115H38.265V18.2502V7.0885H40.5655H40.7155V6.9385V5.60377V5.45377H40.5655H38.265V1.47705V1.32705H38.115H36.576Z" fill="#FF5B91" stroke="#FF5B91" stroke-width="0.3"/>
<path d="M52.4111 13.8108L52.2857 13.7451L52.2128 13.8665C51.7457 14.6449 51.3173 15.1954 50.929 15.5286C50.5081 15.8855 50.0259 16.163 49.5058 16.3476L49.5058 16.3476L49.5033 16.3485C48.95 16.5561 48.3641 16.6635 47.7731 16.6657L47.7704 16.6657C47.1959 16.6781 46.6253 16.5697 46.0953 16.3476C45.5653 16.1255 45.0879 15.7947 44.6938 15.3764L44.6938 15.3764L44.6928 15.3753C43.8921 14.5432 43.4604 13.4879 43.4033 12.1985H54.0438H54.1949L54.1938 12.0475C54.1816 10.3757 53.7321 8.97459 52.8363 7.85471C51.5826 6.26656 49.9049 5.47158 47.8178 5.47158L47.8177 5.47158C45.7881 5.4727 44.1588 6.24928 42.9444 7.79938C42.002 8.98024 41.4961 10.4502 41.512 11.9609C41.507 13.6015 42.1098 15.1858 43.2041 16.4081C44.3359 17.7276 45.9095 18.3818 47.9047 18.3821C48.7358 18.3966 49.5624 18.2572 50.3428 17.971L50.3428 17.971L50.345 17.9702C51.0607 17.6953 51.7174 17.2865 52.28 16.7656L52.28 16.7657L52.2821 16.7636C52.9011 16.1678 53.4094 15.4669 53.7835 14.6935L53.8467 14.5627L53.718 14.4953L52.4111 13.8108ZM52.1518 10.564L43.6049 10.5718C43.9125 9.58493 44.3485 8.84987 44.905 8.35402L44.905 8.35403L44.9062 8.35299C45.7065 7.62493 46.7546 7.22985 47.8364 7.24845L47.8393 7.24844C48.5229 7.24716 49.1984 7.39685 49.8175 7.68682L49.8175 7.68684L49.8201 7.688C50.4039 7.94803 50.9191 8.34055 51.3248 8.83441C51.7106 9.35218 51.9913 9.93976 52.1518 10.564ZM47.839 7.09847L47.839 7.09844L47.839 7.09847Z" fill="#FF5B91" stroke="#FF5B91" stroke-width="0.3"/>
<mask id="path-6-outside-1_1240_6729" maskUnits="userSpaceOnUse" x="54.2002" y="4.604" width="7" height="14" fill="black">
<rect fill="white" x="54.2002" y="4.604" width="7" height="14"/>
<path d="M60.5162 5.71183C60.4966 6.48947 60.4966 7.30632 60.4966 7.30632C60.2268 7.18898 59.9364 7.12623 59.6422 7.12171C59.1281 7.12171 58.632 7.333 58.1539 7.75558C57.6758 8.17817 57.312 8.83165 57.0626 9.71602C56.872 10.4 56.7767 11.7816 56.7767 13.8607V18.2439H55.2002V5.604H56.7767V7.6837C57.1674 7.07785 57.673 6.55445 58.265 6.14312C58.7466 5.81386 59.3153 5.63529 59.8987 5.63014C60.1087 5.63207 60.3175 5.66229 60.5195 5.72"/>
</mask>
<path d="M60.5162 5.71183C60.4966 6.48947 60.4966 7.30632 60.4966 7.30632C60.2268 7.18898 59.9364 7.12623 59.6422 7.12171C59.1281 7.12171 58.632 7.333 58.1539 7.75558C57.6758 8.17817 57.312 8.83165 57.0626 9.71602C56.872 10.4 56.7767 11.7816 56.7767 13.8607V18.2439H55.2002V5.604H56.7767V7.6837C57.1674 7.07785 57.673 6.55445 58.265 6.14312C58.7466 5.81386 59.3153 5.63529 59.8987 5.63014C60.1087 5.63207 60.3175 5.66229 60.5195 5.72" fill="#FF5B91"/>
<path d="M60.4966 7.30632L60.377 7.58143L60.7966 7.76392L60.7966 7.30632L60.4966 7.30632ZM59.6422 7.12171L59.6468 6.82171H59.6422V7.12171ZM57.0626 9.71602L56.7739 9.63459L56.7736 9.63549L57.0626 9.71602ZM56.7767 18.2439V18.5439H57.0767V18.2439H56.7767ZM55.2002 18.2439H54.9002V18.5439H55.2002V18.2439ZM55.2002 5.604V5.304H54.9002V5.604H55.2002ZM56.7767 5.604H57.0767V5.304H56.7767V5.604ZM56.7767 7.6837H56.4767V8.70256L57.0288 7.84627L56.7767 7.6837ZM58.265 6.14312L58.0957 5.89546L58.0938 5.89675L58.265 6.14312ZM59.8987 5.63014L59.9015 5.33011L59.8961 5.33016L59.8987 5.63014ZM60.2163 5.70427C60.2065 6.09545 60.2015 6.49594 60.1991 6.79825C60.1979 6.9495 60.1972 7.07638 60.1969 7.1655C60.1968 7.21006 60.1967 7.24519 60.1967 7.26922C60.1967 7.28123 60.1966 7.29047 60.1966 7.29672C60.1966 7.29985 60.1966 7.30223 60.1966 7.30384C60.1966 7.30464 60.1966 7.30525 60.1966 7.30567C60.1966 7.30587 60.1966 7.30603 60.1966 7.30614C60.1966 7.30619 60.1966 7.30624 60.1966 7.30627C60.1966 7.30628 60.1966 7.30629 60.1966 7.3063C60.1966 7.30631 60.1966 7.30632 60.4966 7.30632C60.7966 7.30632 60.7966 7.30632 60.7966 7.30631C60.7966 7.30631 60.7966 7.3063 60.7966 7.30629C60.7966 7.30627 60.7966 7.30624 60.7966 7.3062C60.7966 7.30611 60.7966 7.30597 60.7966 7.30578C60.7966 7.3054 60.7966 7.30483 60.7966 7.30406C60.7966 7.30253 60.7966 7.30023 60.7966 7.29719C60.7966 7.29109 60.7967 7.28202 60.7967 7.27018C60.7967 7.2465 60.7968 7.21174 60.7969 7.16757C60.7972 7.07923 60.7979 6.95329 60.7991 6.80313C60.8015 6.5026 60.8064 6.10585 60.8161 5.71939L60.2163 5.70427ZM60.6163 7.03121C60.3101 6.89807 59.9806 6.82688 59.6468 6.82174L59.6376 7.42167C59.8922 7.42559 60.1435 7.47988 60.377 7.58143L60.6163 7.03121ZM59.6422 6.82171C59.0385 6.82171 58.4745 7.07191 57.9552 7.5308L58.3526 7.98037C58.7896 7.5941 59.2178 7.42171 59.6422 7.42171V6.82171ZM57.9552 7.5308C57.4189 8.00483 57.0324 8.71794 56.7739 9.63459L57.3513 9.79745C57.5917 8.94535 57.9327 8.3515 58.3526 7.98037L57.9552 7.5308ZM56.7736 9.63549C56.5702 10.3653 56.4767 11.788 56.4767 13.8607H57.0767C57.0767 11.7751 57.1738 10.4346 57.3516 9.79655L56.7736 9.63549ZM56.4767 13.8607V18.2439H57.0767V13.8607H56.4767ZM56.7767 17.9439H55.2002V18.5439H56.7767V17.9439ZM55.5002 18.2439V5.604H54.9002V18.2439H55.5002ZM55.2002 5.904H56.7767V5.304H55.2002V5.904ZM56.4767 5.604V7.6837H57.0767V5.604H56.4767ZM57.0288 7.84627C57.3982 7.27337 57.8764 6.77845 58.4362 6.38949L58.0938 5.89675C57.4696 6.33046 56.9365 6.88232 56.5246 7.52113L57.0288 7.84627ZM58.4343 6.39078C58.8668 6.0951 59.3775 5.93475 59.9013 5.93013L59.8961 5.33016C59.2531 5.33583 58.6264 5.53261 58.0957 5.89547L58.4343 6.39078ZM59.8959 5.93013C60.079 5.93181 60.261 5.95816 60.4371 6.00845L60.6019 5.43154C60.374 5.36643 60.1384 5.33233 59.9015 5.33016L59.8959 5.93013Z" fill="#FF5B91" mask="url(#path-6-outside-1_1240_6729)"/>
<path d="M61.6118 1.15029H61.4619L61.4618 1.30025L61.4569 18.2466L61.4569 18.3966H61.6069H63.1508H63.3008V18.2466V13.522C63.3008 11.931 63.3743 10.8594 63.5151 10.2912C63.7372 9.42362 64.2313 8.64993 64.9251 8.08361L64.9251 8.08365L64.9281 8.08105C65.5978 7.5041 66.4534 7.18862 67.3372 7.19274L67.3387 7.19274C68.1282 7.18851 68.7515 7.38189 69.2225 7.75936C69.6946 8.13763 70.0278 8.70402 70.2127 9.4742C70.317 9.91761 70.372 10.8221 70.372 12.2052V18.2499V18.3999H70.522H72.0659H72.2159V18.2499V11.7511C72.2159 10.1025 72.053 8.87355 71.7138 8.0819C71.3851 7.3026 70.8298 6.64002 70.12 6.18006C69.3858 5.70335 68.5261 5.45661 67.6508 5.47141C66.7752 5.46571 65.9125 5.68284 65.1439 6.1024L65.1439 6.10238L65.1416 6.10369C64.4409 6.50245 63.8192 7.02403 63.3057 7.64234V1.30029V1.15029H63.1557H61.6118Z" fill="#FF5B91" stroke="#FF5B91" stroke-width="0.3"/>
<path d="M85.6965 5.604V5.454H85.5465H84.0255H83.8755V5.604V7.68484C83.3602 7.04513 82.7223 6.51251 81.9978 6.11913L81.9978 6.1191L81.995 6.11765C81.1475 5.68038 80.2053 5.45863 79.2518 5.47196C78.4151 5.46103 77.5852 5.62292 76.8139 5.94749C76.0428 6.27202 75.3469 6.75219 74.7698 7.35796C74.1697 7.94913 73.6957 8.65591 73.3766 9.43555C73.0576 10.2151 72.9 11.0512 72.9134 11.8934C72.8957 12.7438 73.0493 13.589 73.3652 14.3788C73.6814 15.1691 74.1535 15.8876 74.7534 16.4915C75.6622 17.4276 76.8419 18.0548 78.1262 18.2848C79.4107 18.5149 80.7351 18.3359 81.9125 17.7732L81.9125 17.7732L81.9157 17.7716C82.6566 17.3955 83.3208 16.8864 83.8755 16.271V18.2505V18.4005H84.0255H85.5465H85.6965V18.2505V5.604ZM75.3973 9.59633L75.3974 9.59635L75.3987 9.5939C75.79 8.88231 76.3665 8.28976 77.067 7.87896C77.7676 7.46816 78.5661 7.25439 79.3782 7.26027L79.3793 7.11027L79.382 7.26025C79.9896 7.2494 80.5929 7.36482 81.1536 7.59922C81.7143 7.83362 82.2202 8.18189 82.6393 8.62197L82.6393 8.62198L82.6408 8.62352C83.5264 9.52703 83.9703 10.6485 83.9702 11.9983L83.9703 12.0004C83.9819 12.8301 83.7779 13.6487 83.3782 14.3759C82.982 15.0787 82.3975 15.6571 81.6906 16.0459L81.6905 16.0458L81.6882 16.0472C80.9805 16.4529 80.1788 16.6663 79.363 16.6661C78.5618 16.6659 77.7758 16.4474 77.0894 16.0341L77.0881 16.0333C76.3788 15.6157 75.7952 15.0146 75.3987 14.2933L75.3987 14.2933L75.3973 14.2908C74.987 13.5766 74.7711 12.7673 74.7711 11.9436C74.7711 11.1199 74.987 10.3106 75.3973 9.59633Z" fill="#FF5B91" stroke="#FF5B91" stroke-width="0.3"/>
<path d="M87.6167 1.15029H87.4667V1.30029V18.2499V18.3999H87.6167H89.1605H89.3105V18.2499V1.30029V1.15029H89.1605H87.6167Z" fill="#FF5B91" stroke="#FF5B91" stroke-width="0.3"/>
<path d="M95.9514 2.9473L96.1657 3.04907V2.81179V1.30062H96.0157L96.0606 1.15749C95.4653 0.970888 94.8469 0.86798 94.2233 0.851726C93.7179 0.833985 93.2171 0.953275 92.7741 1.19696L92.7741 1.19695L92.7723 1.19793C92.3885 1.41566 92.0851 1.75124 91.907 2.15494L91.907 2.15494L91.9063 2.15636C91.7355 2.55462 91.6573 3.19502 91.6573 4.05667V5.45378H90.2324H90.0824V5.60378V6.93852V7.08852H90.2324H91.6622V18.2502V18.4002H91.8122H93.3561H93.5061V18.2502V7.08852H95.8622H96.0122V6.93852V5.60378V5.45378H95.8622H93.5093V4.3099C93.5093 3.96978 93.5154 3.69871 93.5278 3.49352C93.5402 3.28823 93.5584 3.16185 93.5777 3.09858C93.635 2.95434 93.7422 2.83538 93.8798 2.76335L93.8798 2.76343L93.8843 2.76088C94.0879 2.64522 94.3197 2.58859 94.5537 2.59735C95.0382 2.62032 95.5133 2.73927 95.9514 2.9473Z" fill="#FF5B91" stroke="#FF5B91" stroke-width="0.3"/>
</svg>
